<?xml version="1.0" standalone="no"?>
<!DOCTYPE svg PUBLIC "-//W3C//DTD SVG 20010904//EN"
 "http://www.w3.org/TR/2001/REC-SVG-20010904/DTD/svg10.dtd">
<svg version="1.0" xmlns="http://www.w3.org/2000/svg"
 width="250.000000pt" height="250.000000pt" viewBox="0 0 250.000000 250.000000"
 preserveAspectRatio="xMidYMid meet">
<metadata>
Created by potrace 1.14, written by Peter Selinger 2001-2017
</metadata>
<g transform="translate(0.000000,250.000000) scale(0.100000,-0.100000)"
fill="#000000" stroke="none">
<path d="M1170 2474 c-170 -34 -287 -93 -394 -200 -91 -91 -175 -246 -191
-354 -4 -25 -9 -52 -10 -60 -2 -8 -4 -117 -4 -242 l-1 -228 -143 0 c-127 0
-146 -2 -160 -18 -15 -17 -17 -78 -17 -670 0 -578 2 -652 16 -666 14 -14 117
-16 984 -16 867 0 970 2 984 16 14 14 16 88 16 668 0 620 -1 654 -18 669 -15
14 -41 17 -140 17 l-122 0 -1 223 c0 122 -2 235 -4 251 -25 188 -124 361 -269
470 -63 48 -94 66 -111 66 -8 0 -15 4 -15 10 0 5 -37 21 -82 35 -82 26 -254
41 -318 29z m274 -173 c163 -58 282 -175 344 -339 25 -64 26 -78 30 -319 l4
-253 -551 0 -552 0 2 233 c1 165 5 248 15 287 52 197 206 352 404 404 78 21
228 14 304 -13z"/>
</g>
</svg>
